<mxfile host="app.diagrams.net" modified="2023-12-14T02:05:10.009Z" agent="Mozilla/5.0 (Windows NT 10.0; Win64; x64) AppleWebKit/537.36 (KHTML, like Gecko) Chrome/120.0.0.0 Safari/537.36" etag="yjEKfeuLb5Vx2VbpXZId" version="22.1.8" type="device">
  <diagram name="Page-1" id="DfaQIMsCDU9yjPbXMoNp">
    <mxGraphModel dx="1050" dy="522" grid="1" gridSize="10" guides="1" tooltips="1" connect="1" arrows="1" fold="1" page="1" pageScale="1" pageWidth="850" pageHeight="1100" math="0" shadow="0">
      <root>
        <mxCell id="0" />
        <mxCell id="1" parent="0" />
        <mxCell id="XNPPgBirTSKhmGmdOp4F-1" value="Andrew Forster&lt;br&gt;&lt;div style=&quot;&quot;&gt;&lt;span style=&quot;background-color: initial;&quot;&gt;CST-120&lt;/span&gt;&lt;/div&gt;&lt;div style=&quot;&quot;&gt;&lt;span style=&quot;background-color: initial;&quot;&gt;09/12/23&lt;/span&gt;&lt;/div&gt;&lt;div style=&quot;&quot;&gt;&lt;span style=&quot;background-color: initial;&quot;&gt;Wireframe for milestone&amp;nbsp;&lt;/span&gt;&lt;/div&gt;&lt;div style=&quot;&quot;&gt;&lt;span style=&quot;background-color: initial;&quot;&gt;(Sources)&lt;/span&gt;&lt;/div&gt;" style="text;strokeColor=none;align=left;fillColor=none;html=1;verticalAlign=middle;whiteSpace=wrap;rounded=0;fontFamily=Montserrat;fontSource=https%3A%2F%2Ffonts.googleapis.com%2Fcss%3Ffamily%3DMontserrat;" parent="1" vertex="1">
          <mxGeometry x="160" y="30" width="155" height="80" as="geometry" />
        </mxCell>
        <mxCell id="XNPPgBirTSKhmGmdOp4F-4" value="Background Photo" style="rounded=0;whiteSpace=wrap;html=1;fontFamily=Montserrat;fontSource=https%3A%2F%2Ffonts.googleapis.com%2Fcss%3Ffamily%3DMontserrat;" parent="1" vertex="1">
          <mxGeometry x="212.5" y="130" width="617.5" height="460" as="geometry" />
        </mxCell>
        <mxCell id="XNPPgBirTSKhmGmdOp4F-12" value="logo" style="ellipse;whiteSpace=wrap;html=1;aspect=fixed;fontFamily=Montserrat;fontSource=https%3A%2F%2Ffonts.googleapis.com%2Fcss%3Ffamily%3DMontserrat;" parent="1" vertex="1">
          <mxGeometry x="217.5" y="135" width="35" height="35" as="geometry" />
        </mxCell>
        <mxCell id="XNPPgBirTSKhmGmdOp4F-13" value="FOLD" style="rounded=0;whiteSpace=wrap;html=1;fontFamily=Montserrat;fontSource=https%3A%2F%2Ffonts.googleapis.com%2Fcss%3Ffamily%3DMontserrat;" parent="1" vertex="1">
          <mxGeometry x="212.5" y="590" width="617.5" height="20" as="geometry" />
        </mxCell>
        <mxCell id="XNPPgBirTSKhmGmdOp4F-15" value="" style="ellipse;whiteSpace=wrap;html=1;aspect=fixed;fontFamily=Montserrat;fontSource=https%3A%2F%2Ffonts.googleapis.com%2Fcss%3Ffamily%3DMontserrat;" parent="1" vertex="1">
          <mxGeometry x="505.63" y="550" width="31.25" height="31.25" as="geometry" />
        </mxCell>
        <mxCell id="XNPPgBirTSKhmGmdOp4F-17" value="" style="shape=singleArrow;direction=south;whiteSpace=wrap;html=1;fontFamily=Montserrat;fontSource=https%3A%2F%2Ffonts.googleapis.com%2Fcss%3Ffamily%3DMontserrat;" parent="1" vertex="1">
          <mxGeometry x="511.25" y="550" width="20" height="30" as="geometry" />
        </mxCell>
        <mxCell id="XNPPgBirTSKhmGmdOp4F-49" value="" style="endArrow=none;html=1;rounded=0;fontFamily=Montserrat;fontSource=https%3A%2F%2Ffonts.googleapis.com%2Fcss%3Ffamily%3DMontserrat;" parent="1" edge="1">
          <mxGeometry width="50" height="50" relative="1" as="geometry">
            <mxPoint x="810" y="140" as="sourcePoint" />
            <mxPoint x="820" y="140" as="targetPoint" />
          </mxGeometry>
        </mxCell>
        <mxCell id="XNPPgBirTSKhmGmdOp4F-53" value="" style="shape=link;html=1;rounded=0;width=7.183098591549296;fontFamily=Montserrat;fontSource=https%3A%2F%2Ffonts.googleapis.com%2Fcss%3Ffamily%3DMontserrat;" parent="1" edge="1">
          <mxGeometry width="100" relative="1" as="geometry">
            <mxPoint x="810" y="140" as="sourcePoint" />
            <mxPoint x="820" y="140" as="targetPoint" />
          </mxGeometry>
        </mxCell>
        <mxCell id="XNPPgBirTSKhmGmdOp4F-59" value="Background Photo" style="rounded=0;whiteSpace=wrap;html=1;fillColor=#007FFF;fontFamily=Montserrat;fontSource=https%3A%2F%2Ffonts.googleapis.com%2Fcss%3Ffamily%3DMontserrat;" parent="1" vertex="1">
          <mxGeometry x="860" y="130" width="617.5" height="40" as="geometry" />
        </mxCell>
        <mxCell id="XNPPgBirTSKhmGmdOp4F-60" value="" style="endArrow=none;html=1;rounded=0;fontFamily=Montserrat;fontSource=https%3A%2F%2Ffonts.googleapis.com%2Fcss%3Ffamily%3DMontserrat;" parent="1" edge="1">
          <mxGeometry width="50" height="50" relative="1" as="geometry">
            <mxPoint x="1450" y="140" as="sourcePoint" />
            <mxPoint x="1460" y="140" as="targetPoint" />
          </mxGeometry>
        </mxCell>
        <mxCell id="XNPPgBirTSKhmGmdOp4F-61" value="" style="shape=link;html=1;rounded=0;width=7.183098591549296;fontFamily=Montserrat;fontSource=https%3A%2F%2Ffonts.googleapis.com%2Fcss%3Ffamily%3DMontserrat;" parent="1" edge="1">
          <mxGeometry width="100" relative="1" as="geometry">
            <mxPoint x="1450" y="140" as="sourcePoint" />
            <mxPoint x="1460" y="140" as="targetPoint" />
          </mxGeometry>
        </mxCell>
        <mxCell id="XNPPgBirTSKhmGmdOp4F-62" value="&lt;b&gt;About Me&lt;/b&gt;" style="text;html=1;strokeColor=none;fillColor=none;align=center;verticalAlign=middle;whiteSpace=wrap;rounded=0;fontFamily=Montserrat;fontSource=https%3A%2F%2Ffonts.googleapis.com%2Fcss%3Ffamily%3DMontserrat;" parent="1" vertex="1">
          <mxGeometry x="860" y="140" width="126.25" height="30" as="geometry" />
        </mxCell>
        <mxCell id="XNPPgBirTSKhmGmdOp4F-139" value="" style="rounded=0;whiteSpace=wrap;html=1;fontFamily=Montserrat;fontSource=https%3A%2F%2Ffonts.googleapis.com%2Fcss%3Ffamily%3DMontserrat;" parent="1" vertex="1">
          <mxGeometry x="1520" y="430" width="617" height="1060" as="geometry" />
        </mxCell>
        <mxCell id="XNPPgBirTSKhmGmdOp4F-140" value="Committed to serving Christ" style="rounded=0;whiteSpace=wrap;html=1;fontFamily=Montserrat;fontSource=https%3A%2F%2Ffonts.googleapis.com%2Fcss%3Ffamily%3DMontserrat;" parent="1" vertex="1">
          <mxGeometry x="1520" y="130" width="617.5" height="300" as="geometry" />
        </mxCell>
        <mxCell id="XNPPgBirTSKhmGmdOp4F-141" value="" style="endArrow=none;html=1;rounded=0;fontFamily=Montserrat;fontSource=https%3A%2F%2Ffonts.googleapis.com%2Fcss%3Ffamily%3DMontserrat;" parent="1" edge="1">
          <mxGeometry width="50" height="50" relative="1" as="geometry">
            <mxPoint x="2110" y="140" as="sourcePoint" />
            <mxPoint x="2120" y="140" as="targetPoint" />
          </mxGeometry>
        </mxCell>
        <mxCell id="XNPPgBirTSKhmGmdOp4F-142" value="" style="shape=link;html=1;rounded=0;width=7.183098591549296;fontFamily=Montserrat;fontSource=https%3A%2F%2Ffonts.googleapis.com%2Fcss%3Ffamily%3DMontserrat;" parent="1" edge="1">
          <mxGeometry width="100" relative="1" as="geometry">
            <mxPoint x="2110" y="140" as="sourcePoint" />
            <mxPoint x="2120" y="140" as="targetPoint" />
          </mxGeometry>
        </mxCell>
        <mxCell id="XNPPgBirTSKhmGmdOp4F-143" value="&lt;b&gt;Testimony&lt;/b&gt;" style="text;html=1;strokeColor=none;fillColor=none;align=center;verticalAlign=middle;whiteSpace=wrap;rounded=0;fontFamily=Montserrat;fontSource=https%3A%2F%2Ffonts.googleapis.com%2Fcss%3Ffamily%3DMontserrat;" parent="1" vertex="1">
          <mxGeometry x="1520" y="140" width="126.25" height="30" as="geometry" />
        </mxCell>
        <mxCell id="XNPPgBirTSKhmGmdOp4F-162" value="&lt;font style=&quot;&quot;&gt;&lt;font style=&quot;font-size: 18px;&quot;&gt;&lt;b style=&quot;&quot;&gt;MEXICO MISSIONS TRIP&lt;/b&gt;&lt;br&gt;&lt;/font&gt;&lt;br&gt;&lt;font style=&quot;font-size: 14px;&quot;&gt;A trip taken to Vicente Guerrero by our local church Athey CCF. I was placed on a team of 10 where we were tasked at building a house for a local family in need. In total our church group built over 10+ houses in just the span of 5 days.&lt;br&gt;&lt;/font&gt;&lt;br&gt;&lt;font style=&quot;font-size: 14px;&quot;&gt;This trip was done twice, once in 2021 and once in 2022&lt;/font&gt;&lt;br&gt;&lt;/font&gt;" style="rounded=0;whiteSpace=wrap;html=1;fontFamily=Montserrat;fontSource=https%3A%2F%2Ffonts.googleapis.com%2Fcss%3Ffamily%3DMontserrat;strokeColor=none;align=left;verticalAlign=top;" parent="1" vertex="1">
          <mxGeometry x="1830" y="468.75" width="250" height="211.25" as="geometry" />
        </mxCell>
        <mxCell id="XNPPgBirTSKhmGmdOp4F-163" value="" style="rounded=0;whiteSpace=wrap;html=1;fontFamily=Montserrat;fontSource=https%3A%2F%2Ffonts.googleapis.com%2Fcss%3Ffamily%3DMontserrat;" parent="1" vertex="1">
          <mxGeometry x="2180" y="430" width="617" height="450" as="geometry" />
        </mxCell>
        <mxCell id="XNPPgBirTSKhmGmdOp4F-164" value="Background Photo" style="rounded=0;whiteSpace=wrap;html=1;fontFamily=Montserrat;fontSource=https%3A%2F%2Ffonts.googleapis.com%2Fcss%3Ffamily%3DMontserrat;" parent="1" vertex="1">
          <mxGeometry x="2180" y="130" width="617.5" height="300" as="geometry" />
        </mxCell>
        <mxCell id="XNPPgBirTSKhmGmdOp4F-165" value="" style="endArrow=none;html=1;rounded=0;fontFamily=Montserrat;fontSource=https%3A%2F%2Ffonts.googleapis.com%2Fcss%3Ffamily%3DMontserrat;" parent="1" edge="1">
          <mxGeometry width="50" height="50" relative="1" as="geometry">
            <mxPoint x="2770" y="140" as="sourcePoint" />
            <mxPoint x="2780" y="140" as="targetPoint" />
          </mxGeometry>
        </mxCell>
        <mxCell id="XNPPgBirTSKhmGmdOp4F-166" value="" style="shape=link;html=1;rounded=0;width=7.183098591549296;fontFamily=Montserrat;fontSource=https%3A%2F%2Ffonts.googleapis.com%2Fcss%3Ffamily%3DMontserrat;" parent="1" edge="1">
          <mxGeometry width="100" relative="1" as="geometry">
            <mxPoint x="2770" y="140" as="sourcePoint" />
            <mxPoint x="2780" y="140" as="targetPoint" />
          </mxGeometry>
        </mxCell>
        <mxCell id="XNPPgBirTSKhmGmdOp4F-167" value="&lt;b&gt;Contact Points&lt;/b&gt;" style="text;html=1;strokeColor=none;fillColor=none;align=center;verticalAlign=middle;whiteSpace=wrap;rounded=0;fontFamily=Montserrat;fontSource=https%3A%2F%2Ffonts.googleapis.com%2Fcss%3Ffamily%3DMontserrat;" parent="1" vertex="1">
          <mxGeometry x="2180" y="140" width="126.25" height="30" as="geometry" />
        </mxCell>
        <mxCell id="XNPPgBirTSKhmGmdOp4F-168" value="" style="rounded=1;whiteSpace=wrap;html=1;fontFamily=Montserrat;fontSource=https%3A%2F%2Ffonts.googleapis.com%2Fcss%3Ffamily%3DMontserrat;" parent="1" vertex="1">
          <mxGeometry x="2340.63" y="468.75" width="308.75" height="61.25" as="geometry" />
        </mxCell>
        <mxCell id="XNPPgBirTSKhmGmdOp4F-170" value="" style="ellipse;whiteSpace=wrap;html=1;aspect=fixed;fontFamily=Montserrat;fontSource=https%3A%2F%2Ffonts.googleapis.com%2Fcss%3Ffamily%3DMontserrat;" parent="1" vertex="1">
          <mxGeometry x="2400" y="487.19" width="24.37" height="24.37" as="geometry" />
        </mxCell>
        <mxCell id="XNPPgBirTSKhmGmdOp4F-171" value="" style="ellipse;whiteSpace=wrap;html=1;aspect=fixed;fontFamily=Montserrat;fontSource=https%3A%2F%2Ffonts.googleapis.com%2Fcss%3Ffamily%3DMontserrat;" parent="1" vertex="1">
          <mxGeometry x="2482.81" y="487.19" width="24.37" height="24.37" as="geometry" />
        </mxCell>
        <mxCell id="XNPPgBirTSKhmGmdOp4F-172" value="" style="ellipse;whiteSpace=wrap;html=1;aspect=fixed;fontFamily=Montserrat;fontSource=https%3A%2F%2Ffonts.googleapis.com%2Fcss%3Ffamily%3DMontserrat;" parent="1" vertex="1">
          <mxGeometry x="2570" y="487.19" width="24.37" height="24.37" as="geometry" />
        </mxCell>
        <mxCell id="XNPPgBirTSKhmGmdOp4F-174" value="Contact box form" style="rounded=0;whiteSpace=wrap;html=1;fontFamily=Montserrat;fontSource=https%3A%2F%2Ffonts.googleapis.com%2Fcss%3Ffamily%3DMontserrat;" parent="1" vertex="1">
          <mxGeometry x="2290.01" y="581.25" width="410" height="190" as="geometry" />
        </mxCell>
        <mxCell id="XNPPgBirTSKhmGmdOp4F-175" value="" style="rounded=0;whiteSpace=wrap;html=1;fontFamily=Montserrat;fontSource=https%3A%2F%2Ffonts.googleapis.com%2Fcss%3Ffamily%3DMontserrat;" parent="1" vertex="1">
          <mxGeometry x="2840" y="430" width="617" height="480" as="geometry" />
        </mxCell>
        <mxCell id="XNPPgBirTSKhmGmdOp4F-176" value="Background Photo" style="rounded=0;whiteSpace=wrap;html=1;fontFamily=Montserrat;fontSource=https%3A%2F%2Ffonts.googleapis.com%2Fcss%3Ffamily%3DMontserrat;" parent="1" vertex="1">
          <mxGeometry x="2840" y="130" width="617.5" height="300" as="geometry" />
        </mxCell>
        <mxCell id="XNPPgBirTSKhmGmdOp4F-177" value="" style="endArrow=none;html=1;rounded=0;fontFamily=Montserrat;fontSource=https%3A%2F%2Ffonts.googleapis.com%2Fcss%3Ffamily%3DMontserrat;" parent="1" edge="1">
          <mxGeometry width="50" height="50" relative="1" as="geometry">
            <mxPoint x="3430" y="140" as="sourcePoint" />
            <mxPoint x="3440" y="140" as="targetPoint" />
          </mxGeometry>
        </mxCell>
        <mxCell id="XNPPgBirTSKhmGmdOp4F-178" value="" style="shape=link;html=1;rounded=0;width=7.183098591549296;fontFamily=Montserrat;fontSource=https%3A%2F%2Ffonts.googleapis.com%2Fcss%3Ffamily%3DMontserrat;" parent="1" edge="1">
          <mxGeometry width="100" relative="1" as="geometry">
            <mxPoint x="3430" y="140" as="sourcePoint" />
            <mxPoint x="3440" y="140" as="targetPoint" />
          </mxGeometry>
        </mxCell>
        <mxCell id="XNPPgBirTSKhmGmdOp4F-179" value="&lt;b&gt;Past Projects&lt;/b&gt;" style="text;html=1;strokeColor=none;fillColor=none;align=center;verticalAlign=middle;whiteSpace=wrap;rounded=0;fontFamily=Montserrat;fontSource=https%3A%2F%2Ffonts.googleapis.com%2Fcss%3Ffamily%3DMontserrat;" parent="1" vertex="1">
          <mxGeometry x="2840" y="140" width="126.25" height="30" as="geometry" />
        </mxCell>
        <mxCell id="XNPPgBirTSKhmGmdOp4F-180" value="Project #1" style="rounded=1;whiteSpace=wrap;html=1;fontFamily=Montserrat;fontSource=https%3A%2F%2Ffonts.googleapis.com%2Fcss%3Ffamily%3DMontserrat;" parent="1" vertex="1">
          <mxGeometry x="2871.88" y="540" width="120" height="160" as="geometry" />
        </mxCell>
        <mxCell id="XNPPgBirTSKhmGmdOp4F-181" value="Project #2" style="rounded=1;whiteSpace=wrap;html=1;fontFamily=Montserrat;fontSource=https%3A%2F%2Ffonts.googleapis.com%2Fcss%3Ffamily%3DMontserrat;" parent="1" vertex="1">
          <mxGeometry x="3020" y="540" width="120" height="160" as="geometry" />
        </mxCell>
        <mxCell id="XNPPgBirTSKhmGmdOp4F-182" value="Project #3" style="rounded=1;whiteSpace=wrap;html=1;fontFamily=Montserrat;fontSource=https%3A%2F%2Ffonts.googleapis.com%2Fcss%3Ffamily%3DMontserrat;" parent="1" vertex="1">
          <mxGeometry x="3160" y="540" width="120" height="160" as="geometry" />
        </mxCell>
        <mxCell id="XNPPgBirTSKhmGmdOp4F-183" value="Project #4" style="rounded=1;whiteSpace=wrap;html=1;fontFamily=Montserrat;fontSource=https%3A%2F%2Ffonts.googleapis.com%2Fcss%3Ffamily%3DMontserrat;" parent="1" vertex="1">
          <mxGeometry x="3310" y="540" width="120" height="160" as="geometry" />
        </mxCell>
        <mxCell id="XNPPgBirTSKhmGmdOp4F-184" value="" style="endArrow=none;html=1;rounded=0;entryX=0;entryY=0.5;entryDx=0;entryDy=0;exitX=1;exitY=0.5;exitDx=0;exitDy=0;fontFamily=Montserrat;fontSource=https%3A%2F%2Ffonts.googleapis.com%2Fcss%3Ffamily%3DMontserrat;" parent="1" edge="1">
          <mxGeometry width="50" height="50" relative="1" as="geometry">
            <mxPoint x="3140" y="599.29" as="sourcePoint" />
            <mxPoint x="3020" y="599.29" as="targetPoint" />
          </mxGeometry>
        </mxCell>
        <mxCell id="XNPPgBirTSKhmGmdOp4F-185" value="" style="endArrow=none;html=1;rounded=0;entryX=0;entryY=0.5;entryDx=0;entryDy=0;exitX=1;exitY=0.5;exitDx=0;exitDy=0;fontFamily=Montserrat;fontSource=https%3A%2F%2Ffonts.googleapis.com%2Fcss%3Ffamily%3DMontserrat;" parent="1" edge="1">
          <mxGeometry width="50" height="50" relative="1" as="geometry">
            <mxPoint x="3280" y="599.29" as="sourcePoint" />
            <mxPoint x="3160" y="599.29" as="targetPoint" />
          </mxGeometry>
        </mxCell>
        <mxCell id="XNPPgBirTSKhmGmdOp4F-186" value="" style="endArrow=none;html=1;rounded=0;entryX=0;entryY=0.5;entryDx=0;entryDy=0;exitX=1;exitY=0.5;exitDx=0;exitDy=0;fontFamily=Montserrat;fontSource=https%3A%2F%2Ffonts.googleapis.com%2Fcss%3Ffamily%3DMontserrat;" parent="1" edge="1">
          <mxGeometry width="50" height="50" relative="1" as="geometry">
            <mxPoint x="2991.88" y="599.29" as="sourcePoint" />
            <mxPoint x="2871.88" y="599.29" as="targetPoint" />
          </mxGeometry>
        </mxCell>
        <mxCell id="XNPPgBirTSKhmGmdOp4F-187" value="" style="endArrow=none;html=1;rounded=0;entryX=0;entryY=0.5;entryDx=0;entryDy=0;exitX=1;exitY=0.5;exitDx=0;exitDy=0;fontFamily=Montserrat;fontSource=https%3A%2F%2Ffonts.googleapis.com%2Fcss%3Ffamily%3DMontserrat;" parent="1" edge="1">
          <mxGeometry width="50" height="50" relative="1" as="geometry">
            <mxPoint x="3430" y="599.29" as="sourcePoint" />
            <mxPoint x="3310" y="599.29" as="targetPoint" />
          </mxGeometry>
        </mxCell>
        <mxCell id="XNPPgBirTSKhmGmdOp4F-188" value="Image here" style="rounded=1;whiteSpace=wrap;html=1;fontFamily=Montserrat;fontSource=https%3A%2F%2Ffonts.googleapis.com%2Fcss%3Ffamily%3DMontserrat;" parent="1" vertex="1">
          <mxGeometry x="2901.88" y="560" width="60" height="30" as="geometry" />
        </mxCell>
        <mxCell id="XNPPgBirTSKhmGmdOp4F-189" value="Image here" style="rounded=1;whiteSpace=wrap;html=1;fontFamily=Montserrat;fontSource=https%3A%2F%2Ffonts.googleapis.com%2Fcss%3Ffamily%3DMontserrat;" parent="1" vertex="1">
          <mxGeometry x="3050" y="560" width="60" height="30" as="geometry" />
        </mxCell>
        <mxCell id="XNPPgBirTSKhmGmdOp4F-190" value="Image here" style="rounded=1;whiteSpace=wrap;html=1;fontFamily=Montserrat;fontSource=https%3A%2F%2Ffonts.googleapis.com%2Fcss%3Ffamily%3DMontserrat;" parent="1" vertex="1">
          <mxGeometry x="3190" y="560" width="60" height="30" as="geometry" />
        </mxCell>
        <mxCell id="XNPPgBirTSKhmGmdOp4F-191" value="Image here" style="rounded=1;whiteSpace=wrap;html=1;fontFamily=Montserrat;fontSource=https%3A%2F%2Ffonts.googleapis.com%2Fcss%3Ffamily%3DMontserrat;" parent="1" vertex="1">
          <mxGeometry x="3340" y="560" width="60" height="30" as="geometry" />
        </mxCell>
        <mxCell id="XNPPgBirTSKhmGmdOp4F-192" value="Button" style="rounded=1;whiteSpace=wrap;html=1;fontFamily=Montserrat;fontSource=https%3A%2F%2Ffonts.googleapis.com%2Fcss%3Ffamily%3DMontserrat;" parent="1" vertex="1">
          <mxGeometry x="3045" y="660" width="70" height="20" as="geometry" />
        </mxCell>
        <mxCell id="XNPPgBirTSKhmGmdOp4F-193" value="Button" style="rounded=1;whiteSpace=wrap;html=1;fontFamily=Montserrat;fontSource=https%3A%2F%2Ffonts.googleapis.com%2Fcss%3Ffamily%3DMontserrat;" parent="1" vertex="1">
          <mxGeometry x="2896.88" y="660" width="70" height="20" as="geometry" />
        </mxCell>
        <mxCell id="XNPPgBirTSKhmGmdOp4F-194" value="Button" style="rounded=1;whiteSpace=wrap;html=1;fontFamily=Montserrat;fontSource=https%3A%2F%2Ffonts.googleapis.com%2Fcss%3Ffamily%3DMontserrat;" parent="1" vertex="1">
          <mxGeometry x="3185" y="660" width="70" height="20" as="geometry" />
        </mxCell>
        <mxCell id="XNPPgBirTSKhmGmdOp4F-195" value="Button" style="rounded=1;whiteSpace=wrap;html=1;fontFamily=Montserrat;fontSource=https%3A%2F%2Ffonts.googleapis.com%2Fcss%3Ffamily%3DMontserrat;" parent="1" vertex="1">
          <mxGeometry x="3335" y="660" width="70" height="20" as="geometry" />
        </mxCell>
        <mxCell id="XNPPgBirTSKhmGmdOp4F-196" value="&lt;b&gt;Project Highlights&lt;/b&gt;" style="rounded=1;whiteSpace=wrap;html=1;fontFamily=Montserrat;fontSource=https%3A%2F%2Ffonts.googleapis.com%2Fcss%3Ffamily%3DMontserrat;" parent="1" vertex="1">
          <mxGeometry x="2991.88" y="460" width="298.75" height="40" as="geometry" />
        </mxCell>
        <mxCell id="XNPPgBirTSKhmGmdOp4F-197" value="All Projects" style="rounded=1;whiteSpace=wrap;html=1;fontFamily=Montserrat;fontSource=https%3A%2F%2Ffonts.googleapis.com%2Fcss%3Ffamily%3DMontserrat;" parent="1" vertex="1">
          <mxGeometry x="2990" y="730" width="300" height="40" as="geometry" />
        </mxCell>
        <mxCell id="XNPPgBirTSKhmGmdOp4F-198" value="List of all projects" style="rounded=0;whiteSpace=wrap;html=1;fontFamily=Montserrat;fontSource=https%3A%2F%2Ffonts.googleapis.com%2Fcss%3Ffamily%3DMontserrat;" parent="1" vertex="1">
          <mxGeometry x="2895" y="780" width="490" height="110" as="geometry" />
        </mxCell>
        <mxCell id="XNPPgBirTSKhmGmdOp4F-199" value="" style="rounded=0;whiteSpace=wrap;html=1;fontFamily=Montserrat;fontSource=https%3A%2F%2Ffonts.googleapis.com%2Fcss%3Ffamily%3DMontserrat;" parent="1" vertex="1">
          <mxGeometry x="3500" y="180" width="617" height="1970" as="geometry" />
        </mxCell>
        <mxCell id="XNPPgBirTSKhmGmdOp4F-200" value="Background Photo" style="rounded=0;whiteSpace=wrap;html=1;fontFamily=Montserrat;fontSource=https%3A%2F%2Ffonts.googleapis.com%2Fcss%3Ffamily%3DMontserrat;" parent="1" vertex="1">
          <mxGeometry x="3500" y="130" width="617.5" height="50" as="geometry" />
        </mxCell>
        <mxCell id="XNPPgBirTSKhmGmdOp4F-201" value="" style="endArrow=none;html=1;rounded=0;fontFamily=Montserrat;fontSource=https%3A%2F%2Ffonts.googleapis.com%2Fcss%3Ffamily%3DMontserrat;" parent="1" edge="1">
          <mxGeometry width="50" height="50" relative="1" as="geometry">
            <mxPoint x="4090" y="140" as="sourcePoint" />
            <mxPoint x="4100" y="140" as="targetPoint" />
          </mxGeometry>
        </mxCell>
        <mxCell id="XNPPgBirTSKhmGmdOp4F-202" value="" style="shape=link;html=1;rounded=0;width=7.183098591549296;fontFamily=Montserrat;fontSource=https%3A%2F%2Ffonts.googleapis.com%2Fcss%3Ffamily%3DMontserrat;" parent="1" edge="1">
          <mxGeometry width="100" relative="1" as="geometry">
            <mxPoint x="4090" y="140" as="sourcePoint" />
            <mxPoint x="4100" y="140" as="targetPoint" />
          </mxGeometry>
        </mxCell>
        <mxCell id="XNPPgBirTSKhmGmdOp4F-203" value="&lt;b&gt;Source Code&lt;/b&gt;" style="text;html=1;strokeColor=none;fillColor=none;align=center;verticalAlign=middle;whiteSpace=wrap;rounded=0;fontFamily=Montserrat;fontSource=https%3A%2F%2Ffonts.googleapis.com%2Fcss%3Ffamily%3DMontserrat;" parent="1" vertex="1">
          <mxGeometry x="3500" y="140" width="126.25" height="30" as="geometry" />
        </mxCell>
        <mxCell id="XNPPgBirTSKhmGmdOp4F-204" value="" style="rounded=1;whiteSpace=wrap;html=1;fontFamily=Montserrat;fontSource=https%3A%2F%2Ffonts.googleapis.com%2Fcss%3Ffamily%3DMontserrat;" parent="1" vertex="1">
          <mxGeometry x="3570" y="425" width="490" height="515" as="geometry" />
        </mxCell>
        <mxCell id="XNPPgBirTSKhmGmdOp4F-212" value="Code here" style="rounded=1;whiteSpace=wrap;html=1;fontFamily=Montserrat;fontSource=https%3A%2F%2Ffonts.googleapis.com%2Fcss%3Ffamily%3DMontserrat;" parent="1" vertex="1">
          <mxGeometry x="3580" y="472.5" width="190" height="187.5" as="geometry" />
        </mxCell>
        <mxCell id="XNPPgBirTSKhmGmdOp4F-220" value="&lt;b&gt;Source Code&lt;/b&gt;" style="rounded=1;whiteSpace=wrap;html=1;fontFamily=Montserrat;fontSource=https%3A%2F%2Ffonts.googleapis.com%2Fcss%3Ffamily%3DMontserrat;" parent="1" vertex="1">
          <mxGeometry x="3651.88" y="210" width="298.75" height="40" as="geometry" />
        </mxCell>
        <mxCell id="XNPPgBirTSKhmGmdOp4F-222" value="This websites source code will be linked on github soon. In the meanwhile a few notable features will be explained below!" style="rounded=0;whiteSpace=wrap;html=1;fontFamily=Montserrat;fontSource=https%3A%2F%2Ffonts.googleapis.com%2Fcss%3Ffamily%3DMontserrat;" parent="1" vertex="1">
          <mxGeometry x="3662.5699999999997" y="270" width="279.38" height="110" as="geometry" />
        </mxCell>
        <mxCell id="AJHhCcERrYtMLQFG_yPB-1" value="Andrew Forster&lt;br&gt;&lt;div style=&quot;&quot;&gt;&lt;span style=&quot;background-color: initial;&quot;&gt;CST-120&lt;/span&gt;&lt;/div&gt;&lt;div style=&quot;&quot;&gt;&lt;span style=&quot;background-color: initial;&quot;&gt;09/12/23&lt;/span&gt;&lt;/div&gt;&lt;div style=&quot;&quot;&gt;&lt;span style=&quot;background-color: initial;&quot;&gt;Wireframe for milestone&amp;nbsp;&lt;/span&gt;&lt;/div&gt;&lt;div style=&quot;&quot;&gt;&lt;span style=&quot;background-color: initial;&quot;&gt;(Sources)&lt;/span&gt;&lt;/div&gt;" style="text;strokeColor=none;align=left;fillColor=none;html=1;verticalAlign=middle;whiteSpace=wrap;rounded=0;fontFamily=Montserrat;fontSource=https%3A%2F%2Ffonts.googleapis.com%2Fcss%3Ffamily%3DMontserrat;" parent="1" vertex="1">
          <mxGeometry x="856.88" y="30" width="155" height="80" as="geometry" />
        </mxCell>
        <mxCell id="AJHhCcERrYtMLQFG_yPB-2" value="Andrew Forster&lt;br&gt;&lt;div style=&quot;&quot;&gt;&lt;span style=&quot;background-color: initial;&quot;&gt;CST-120&lt;/span&gt;&lt;/div&gt;&lt;div style=&quot;&quot;&gt;&lt;span style=&quot;background-color: initial;&quot;&gt;09/12/23&lt;/span&gt;&lt;/div&gt;&lt;div style=&quot;&quot;&gt;&lt;span style=&quot;background-color: initial;&quot;&gt;Wireframe for milestone&amp;nbsp;&lt;/span&gt;&lt;/div&gt;&lt;div style=&quot;&quot;&gt;&lt;span style=&quot;background-color: initial;&quot;&gt;(Sources)&lt;/span&gt;&lt;/div&gt;" style="text;strokeColor=none;align=left;fillColor=none;html=1;verticalAlign=middle;whiteSpace=wrap;rounded=0;fontFamily=Montserrat;fontSource=https%3A%2F%2Ffonts.googleapis.com%2Fcss%3Ffamily%3DMontserrat;" parent="1" vertex="1">
          <mxGeometry x="1520" y="30" width="155" height="80" as="geometry" />
        </mxCell>
        <mxCell id="AJHhCcERrYtMLQFG_yPB-3" value="Andrew Forster&lt;br&gt;&lt;div style=&quot;&quot;&gt;&lt;span style=&quot;background-color: initial;&quot;&gt;CST-120&lt;/span&gt;&lt;/div&gt;&lt;div style=&quot;&quot;&gt;&lt;span style=&quot;background-color: initial;&quot;&gt;09/12/23&lt;/span&gt;&lt;/div&gt;&lt;div style=&quot;&quot;&gt;&lt;span style=&quot;background-color: initial;&quot;&gt;Wireframe for milestone&amp;nbsp;&lt;/span&gt;&lt;/div&gt;&lt;div style=&quot;&quot;&gt;&lt;span style=&quot;background-color: initial;&quot;&gt;(Sources)&lt;/span&gt;&lt;/div&gt;" style="text;strokeColor=none;align=left;fillColor=none;html=1;verticalAlign=middle;whiteSpace=wrap;rounded=0;fontFamily=Montserrat;fontSource=https%3A%2F%2Ffonts.googleapis.com%2Fcss%3Ffamily%3DMontserrat;" parent="1" vertex="1">
          <mxGeometry x="2175.62" y="30" width="155" height="80" as="geometry" />
        </mxCell>
        <mxCell id="AJHhCcERrYtMLQFG_yPB-4" value="Andrew Forster&lt;br&gt;&lt;div style=&quot;&quot;&gt;&lt;span style=&quot;background-color: initial;&quot;&gt;CST-120&lt;/span&gt;&lt;/div&gt;&lt;div style=&quot;&quot;&gt;&lt;span style=&quot;background-color: initial;&quot;&gt;09/12/23&lt;/span&gt;&lt;/div&gt;&lt;div style=&quot;&quot;&gt;&lt;span style=&quot;background-color: initial;&quot;&gt;Wireframe for milestone&amp;nbsp;&lt;/span&gt;&lt;/div&gt;&lt;div style=&quot;&quot;&gt;&lt;span style=&quot;background-color: initial;&quot;&gt;(Sources)&lt;/span&gt;&lt;/div&gt;" style="text;strokeColor=none;align=left;fillColor=none;html=1;verticalAlign=middle;whiteSpace=wrap;rounded=0;fontFamily=Montserrat;fontSource=https%3A%2F%2Ffonts.googleapis.com%2Fcss%3Ffamily%3DMontserrat;" parent="1" vertex="1">
          <mxGeometry x="2840" y="20" width="155" height="80" as="geometry" />
        </mxCell>
        <mxCell id="AJHhCcERrYtMLQFG_yPB-5" value="Andrew Forster&lt;br&gt;&lt;div style=&quot;&quot;&gt;&lt;span style=&quot;background-color: initial;&quot;&gt;CST-120&lt;/span&gt;&lt;/div&gt;&lt;div style=&quot;&quot;&gt;&lt;span style=&quot;background-color: initial;&quot;&gt;09/12/23&lt;/span&gt;&lt;/div&gt;&lt;div style=&quot;&quot;&gt;&lt;span style=&quot;background-color: initial;&quot;&gt;Wireframe for milestone&amp;nbsp;&lt;/span&gt;&lt;/div&gt;&lt;div style=&quot;&quot;&gt;&lt;span style=&quot;background-color: initial;&quot;&gt;(Sources)&lt;/span&gt;&lt;/div&gt;" style="text;strokeColor=none;align=left;fillColor=none;html=1;verticalAlign=middle;whiteSpace=wrap;rounded=0;fontFamily=Montserrat;fontSource=https%3A%2F%2Ffonts.googleapis.com%2Fcss%3Ffamily%3DMontserrat;" parent="1" vertex="1">
          <mxGeometry x="3500" y="20" width="155" height="80" as="geometry" />
        </mxCell>
        <mxCell id="p-yxIIEr6ukb9wPfq_q1-2" value="" style="rounded=0;whiteSpace=wrap;html=1;fillColor=#004C99;fontFamily=Montserrat;fontSource=https%3A%2F%2Ffonts.googleapis.com%2Fcss%3Ffamily%3DMontserrat;" parent="1" vertex="1">
          <mxGeometry x="1040" y="170" width="437.5" height="760" as="geometry" />
        </mxCell>
        <mxCell id="p-yxIIEr6ukb9wPfq_q1-1" value="" style="rounded=0;whiteSpace=wrap;html=1;fontFamily=Montserrat;fontSource=https%3A%2F%2Ffonts.googleapis.com%2Fcss%3Ffamily%3DMontserrat;" parent="1" vertex="1">
          <mxGeometry x="860" y="170" width="180" height="760" as="geometry" />
        </mxCell>
        <mxCell id="p-yxIIEr6ukb9wPfq_q1-3" value="&lt;b&gt;&lt;font style=&quot;font-size: 14px;&quot;&gt;Image of me&lt;/font&gt;&lt;/b&gt;" style="rounded=0;whiteSpace=wrap;html=1;fontFamily=Montserrat;fontSource=https%3A%2F%2Ffonts.googleapis.com%2Fcss%3Ffamily%3DMontserrat;" parent="1" vertex="1">
          <mxGeometry x="874.38" y="190" width="155.62" height="120" as="geometry" />
        </mxCell>
        <mxCell id="p-yxIIEr6ukb9wPfq_q1-4" value="&lt;b&gt;&lt;font data-font-src=&quot;https://fonts.googleapis.com/css?family=Montserrat&quot; style=&quot;font-size: 18px;&quot;&gt;Skills&lt;/font&gt;&lt;/b&gt;" style="text;html=1;align=center;verticalAlign=middle;resizable=0;points=[];autosize=1;strokeColor=none;fillColor=none;fontFamily=Montserrat;fontSource=https%3A%2F%2Ffonts.googleapis.com%2Fcss%3Ffamily%3DMontserrat;" parent="1" vertex="1">
          <mxGeometry x="861.88" y="320" width="70" height="40" as="geometry" />
        </mxCell>
        <mxCell id="p-yxIIEr6ukb9wPfq_q1-6" value="" style="rounded=1;whiteSpace=wrap;html=1;" parent="1" vertex="1">
          <mxGeometry x="875.64" y="390" width="155.62" height="20" as="geometry" />
        </mxCell>
        <mxCell id="p-yxIIEr6ukb9wPfq_q1-8" value="" style="rounded=1;whiteSpace=wrap;html=1;fontColor=none;noLabel=1;labelBackgroundColor=#00CC00;fillColor=#006600;" parent="1" vertex="1">
          <mxGeometry x="875.6400000000001" y="390" width="145.62" height="20" as="geometry" />
        </mxCell>
        <mxCell id="p-yxIIEr6ukb9wPfq_q1-11" value="Problem Solving" style="rounded=0;whiteSpace=wrap;html=1;fillColor=default;strokeColor=none;" parent="1" vertex="1">
          <mxGeometry x="860" y="360" width="113.13" height="20" as="geometry" />
        </mxCell>
        <mxCell id="p-yxIIEr6ukb9wPfq_q1-18" value="" style="rounded=1;whiteSpace=wrap;html=1;" parent="1" vertex="1">
          <mxGeometry x="875.64" y="460" width="155.62" height="20" as="geometry" />
        </mxCell>
        <mxCell id="p-yxIIEr6ukb9wPfq_q1-19" value="" style="rounded=1;whiteSpace=wrap;html=1;fontColor=none;noLabel=1;labelBackgroundColor=#00CC00;fillColor=#006600;" parent="1" vertex="1">
          <mxGeometry x="875.64" y="460" width="134.36" height="20" as="geometry" />
        </mxCell>
        <mxCell id="p-yxIIEr6ukb9wPfq_q1-20" value="Collaboration" style="rounded=0;whiteSpace=wrap;html=1;fillColor=default;strokeColor=none;" parent="1" vertex="1">
          <mxGeometry x="860" y="430" width="100" height="20" as="geometry" />
        </mxCell>
        <mxCell id="p-yxIIEr6ukb9wPfq_q1-21" style="edgeStyle=orthogonalEdgeStyle;rounded=0;orthogonalLoop=1;jettySize=auto;html=1;exitX=0.5;exitY=1;exitDx=0;exitDy=0;" parent="1" source="p-yxIIEr6ukb9wPfq_q1-20" target="p-yxIIEr6ukb9wPfq_q1-20" edge="1">
          <mxGeometry relative="1" as="geometry" />
        </mxCell>
        <mxCell id="p-yxIIEr6ukb9wPfq_q1-22" value="" style="rounded=1;whiteSpace=wrap;html=1;" parent="1" vertex="1">
          <mxGeometry x="875.64" y="530" width="155.62" height="20" as="geometry" />
        </mxCell>
        <mxCell id="p-yxIIEr6ukb9wPfq_q1-23" value="" style="rounded=1;whiteSpace=wrap;html=1;fontColor=none;noLabel=1;labelBackgroundColor=#00CC00;fillColor=#006600;" parent="1" vertex="1">
          <mxGeometry x="875.64" y="530" width="114.36" height="20" as="geometry" />
        </mxCell>
        <mxCell id="p-yxIIEr6ukb9wPfq_q1-24" value="Communicaton" style="rounded=0;whiteSpace=wrap;html=1;fillColor=default;strokeColor=none;" parent="1" vertex="1">
          <mxGeometry x="860" y="500" width="106.56" height="20" as="geometry" />
        </mxCell>
        <mxCell id="p-yxIIEr6ukb9wPfq_q1-29" value="" style="rounded=1;whiteSpace=wrap;html=1;" parent="1" vertex="1">
          <mxGeometry x="875.64" y="595" width="155.62" height="20" as="geometry" />
        </mxCell>
        <mxCell id="p-yxIIEr6ukb9wPfq_q1-30" value="" style="rounded=1;whiteSpace=wrap;html=1;fontColor=none;noLabel=1;labelBackgroundColor=#00CC00;fillColor=#006600;" parent="1" vertex="1">
          <mxGeometry x="875.64" y="595" width="134.36" height="20" as="geometry" />
        </mxCell>
        <mxCell id="p-yxIIEr6ukb9wPfq_q1-31" value="Patience" style="rounded=0;whiteSpace=wrap;html=1;fillColor=default;strokeColor=none;" parent="1" vertex="1">
          <mxGeometry x="860" y="570" width="76.56" height="20" as="geometry" />
        </mxCell>
        <mxCell id="p-yxIIEr6ukb9wPfq_q1-35" value="" style="rounded=1;whiteSpace=wrap;html=1;" parent="1" vertex="1">
          <mxGeometry x="874.38" y="655" width="155.62" height="20" as="geometry" />
        </mxCell>
        <mxCell id="p-yxIIEr6ukb9wPfq_q1-36" value="" style="rounded=1;whiteSpace=wrap;html=1;fontColor=none;noLabel=1;labelBackgroundColor=#00CC00;fillColor=#006600;" parent="1" vertex="1">
          <mxGeometry x="874.38" y="655" width="125.62" height="20" as="geometry" />
        </mxCell>
        <mxCell id="p-yxIIEr6ukb9wPfq_q1-37" value="Creativity" style="rounded=0;whiteSpace=wrap;html=1;fillColor=default;strokeColor=none;" parent="1" vertex="1">
          <mxGeometry x="860" y="630" width="83.44" height="20" as="geometry" />
        </mxCell>
        <mxCell id="p-yxIIEr6ukb9wPfq_q1-39" value="" style="rounded=1;whiteSpace=wrap;html=1;" parent="1" vertex="1">
          <mxGeometry x="875.64" y="720" width="155.62" height="20" as="geometry" />
        </mxCell>
        <mxCell id="p-yxIIEr6ukb9wPfq_q1-40" value="" style="rounded=1;whiteSpace=wrap;html=1;fontColor=none;noLabel=1;labelBackgroundColor=#00CC00;fillColor=#006600;" parent="1" vertex="1">
          <mxGeometry x="875.64" y="720" width="114.36" height="20" as="geometry" />
        </mxCell>
        <mxCell id="p-yxIIEr6ukb9wPfq_q1-41" value="Critical Thinking" style="rounded=0;whiteSpace=wrap;html=1;fillColor=default;strokeColor=none;" parent="1" vertex="1">
          <mxGeometry x="860" y="690" width="118.44" height="20" as="geometry" />
        </mxCell>
        <mxCell id="p-yxIIEr6ukb9wPfq_q1-45" value="&lt;p style=&quot;line-height: 140%;&quot;&gt;&lt;b style=&quot;border-color: var(--border-color);&quot;&gt;&lt;font style=&quot;border-color: var(--border-color);&quot; size=&quot;1&quot; data-font-src=&quot;https://fonts.googleapis.com/css?family=Montserrat&quot; face=&quot;Montserrat&quot;&gt;&lt;u style=&quot;border-color: var(--border-color); font-size: 18px;&quot;&gt;ABOUT&lt;/u&gt;&lt;/font&gt;&lt;/b&gt;&lt;br&gt;&lt;/p&gt;" style="text;html=1;align=center;verticalAlign=middle;resizable=0;points=[];autosize=1;strokeColor=none;fillColor=none;" parent="1" vertex="1">
          <mxGeometry x="1054.37" y="170" width="90" height="60" as="geometry" />
        </mxCell>
        <mxCell id="p-yxIIEr6ukb9wPfq_q1-46" value="&lt;font face=&quot;Montserrat&quot;&gt;&lt;span style=&quot;font-size: 18px;&quot;&gt;My name is Andrew Forster. Born in&lt;br&gt;Portland, OR.&lt;br&gt;I am currently pursuing&amp;nbsp;to be a &lt;br&gt;Software developer. I believe myself to&lt;br&gt;be adequate because of my&lt;br&gt;determination and my skill set that&lt;br&gt;aligns well within the field.&lt;br&gt;&lt;/span&gt;&lt;/font&gt;" style="text;html=1;align=left;verticalAlign=middle;resizable=1;points=[];autosize=1;strokeColor=none;fillColor=none;movable=1;rotatable=1;deletable=1;editable=1;locked=0;connectable=1;" parent="1" vertex="1">
          <mxGeometry x="1080" y="220" width="370" height="160" as="geometry" />
        </mxCell>
        <mxCell id="p-yxIIEr6ukb9wPfq_q1-47" value="&lt;p style=&quot;line-height: 140%;&quot;&gt;&lt;b style=&quot;border-color: var(--border-color);&quot;&gt;&lt;font style=&quot;border-color: var(--border-color);&quot; size=&quot;1&quot; data-font-src=&quot;https://fonts.googleapis.com/css?family=Montserrat&quot; face=&quot;Montserrat&quot;&gt;&lt;u style=&quot;border-color: var(--border-color); font-size: 18px;&quot;&gt;Education&lt;/u&gt;&lt;/font&gt;&lt;/b&gt;&lt;br&gt;&lt;/p&gt;" style="text;html=1;align=center;verticalAlign=middle;resizable=0;points=[];autosize=1;strokeColor=none;fillColor=none;" parent="1" vertex="1">
          <mxGeometry x="1054.37" y="380" width="120" height="60" as="geometry" />
        </mxCell>
        <mxCell id="p-yxIIEr6ukb9wPfq_q1-48" value="&lt;span style=&quot;white-space: pre;&quot;&gt;&#x9;&lt;/span&gt;&lt;span style=&quot;white-space: pre;&quot;&gt;&#x9;&lt;/span&gt;West Linn High School&lt;b&gt;&amp;nbsp;(GED)&lt;/b&gt;" style="rounded=0;whiteSpace=wrap;html=1;align=left;" parent="1" vertex="1">
          <mxGeometry x="1070" y="440" width="370" height="50" as="geometry" />
        </mxCell>
        <mxCell id="p-yxIIEr6ukb9wPfq_q1-51" value="" style="strokeWidth=2;html=1;shape=mxgraph.flowchart.extract_or_measurement;whiteSpace=wrap;rotation=-180;" parent="1" vertex="1">
          <mxGeometry x="1080" y="458.75" width="25" height="12.5" as="geometry" />
        </mxCell>
        <mxCell id="p-yxIIEr6ukb9wPfq_q1-56" value="&lt;span style=&quot;white-space: pre;&quot;&gt;&#x9;&lt;/span&gt;&lt;span style=&quot;white-space: pre;&quot;&gt;&#x9;&lt;/span&gt;Grand Canyon University&lt;b&gt;&amp;nbsp;[ In progress ]&lt;/b&gt;" style="rounded=0;whiteSpace=wrap;html=1;align=left;" parent="1" vertex="1">
          <mxGeometry x="1070" y="500" width="370" height="50" as="geometry" />
        </mxCell>
        <mxCell id="p-yxIIEr6ukb9wPfq_q1-57" value="" style="strokeWidth=2;html=1;shape=mxgraph.flowchart.extract_or_measurement;whiteSpace=wrap;rotation=-180;" parent="1" vertex="1">
          <mxGeometry x="1080" y="518.75" width="25" height="12.5" as="geometry" />
        </mxCell>
        <mxCell id="p-yxIIEr6ukb9wPfq_q1-58" value="&lt;font face=&quot;Montserrat&quot;&gt;&lt;span style=&quot;font-size: 18px;&quot;&gt;&lt;b&gt;&lt;u&gt;Languages&lt;/u&gt;&lt;/b&gt;&lt;/span&gt;&lt;/font&gt;" style="text;html=1;align=center;verticalAlign=middle;resizable=0;points=[];autosize=1;strokeColor=none;fillColor=none;" parent="1" vertex="1">
          <mxGeometry x="1060" y="564.37" width="120" height="40" as="geometry" />
        </mxCell>
        <mxCell id="p-yxIIEr6ukb9wPfq_q1-64" value="" style="rounded=1;whiteSpace=wrap;html=1;" parent="1" vertex="1">
          <mxGeometry x="1074.3799999999999" y="615" width="155.62" height="20" as="geometry" />
        </mxCell>
        <mxCell id="p-yxIIEr6ukb9wPfq_q1-65" value="&lt;font color=&quot;#ffffff&quot;&gt;HTML&lt;/font&gt;" style="rounded=1;whiteSpace=wrap;html=1;fontColor=none;noLabel=1;labelBackgroundColor=#00CC00;fillColor=#006600;" parent="1" vertex="1">
          <mxGeometry x="1074.38" y="615" width="115.62" height="20" as="geometry" />
        </mxCell>
        <mxCell id="p-yxIIEr6ukb9wPfq_q1-70" value="&lt;font color=&quot;#ffffff&quot;&gt;HTML&lt;/font&gt;" style="text;html=1;align=center;verticalAlign=middle;resizable=0;points=[];autosize=1;strokeColor=none;fillColor=none;" parent="1" vertex="1">
          <mxGeometry x="1068.74" y="610" width="60" height="30" as="geometry" />
        </mxCell>
        <mxCell id="p-yxIIEr6ukb9wPfq_q1-71" value="" style="rounded=1;whiteSpace=wrap;html=1;" parent="1" vertex="1">
          <mxGeometry x="1074.3799999999999" y="655" width="155.62" height="20" as="geometry" />
        </mxCell>
        <mxCell id="p-yxIIEr6ukb9wPfq_q1-72" value="&lt;font color=&quot;#ffffff&quot;&gt;HTML&lt;/font&gt;" style="rounded=1;whiteSpace=wrap;html=1;fontColor=none;noLabel=1;labelBackgroundColor=#00CC00;fillColor=#006600;" parent="1" vertex="1">
          <mxGeometry x="1074.38" y="655" width="95.62" height="20" as="geometry" />
        </mxCell>
        <mxCell id="p-yxIIEr6ukb9wPfq_q1-73" value="&lt;font color=&quot;#ffffff&quot;&gt;CSS&lt;/font&gt;" style="text;html=1;align=center;verticalAlign=middle;resizable=0;points=[];autosize=1;strokeColor=none;fillColor=none;" parent="1" vertex="1">
          <mxGeometry x="1068.74" y="650" width="50" height="30" as="geometry" />
        </mxCell>
        <mxCell id="p-yxIIEr6ukb9wPfq_q1-76" value="" style="rounded=1;whiteSpace=wrap;html=1;" parent="1" vertex="1">
          <mxGeometry x="1074.3799999999999" y="695" width="155.62" height="20" as="geometry" />
        </mxCell>
        <mxCell id="p-yxIIEr6ukb9wPfq_q1-77" value="&lt;font color=&quot;#ffffff&quot;&gt;HTML&lt;/font&gt;" style="rounded=1;whiteSpace=wrap;html=1;fontColor=none;noLabel=1;labelBackgroundColor=#00CC00;fillColor=#006600;" parent="1" vertex="1">
          <mxGeometry x="1074.38" y="695" width="65.62" height="20" as="geometry" />
        </mxCell>
        <mxCell id="p-yxIIEr6ukb9wPfq_q1-78" value="&lt;font color=&quot;#ffffff&quot;&gt;Javascript&lt;br&gt;&lt;/font&gt;" style="text;html=1;align=center;verticalAlign=middle;resizable=0;points=[];autosize=1;strokeColor=none;fillColor=none;" parent="1" vertex="1">
          <mxGeometry x="1068.74" y="690" width="80" height="30" as="geometry" />
        </mxCell>
        <mxCell id="p-yxIIEr6ukb9wPfq_q1-79" value="&lt;p style=&quot;line-height: 140%;&quot;&gt;&lt;b style=&quot;border-color: var(--border-color);&quot;&gt;&lt;font style=&quot;border-color: var(--border-color);&quot; size=&quot;1&quot; data-font-src=&quot;https://fonts.googleapis.com/css?family=Montserrat&quot; face=&quot;Montserrat&quot;&gt;&lt;u style=&quot;border-color: var(--border-color); font-size: 18px;&quot;&gt;Take a look at my portfolio next!&lt;/u&gt;&lt;/font&gt;&lt;/b&gt;&lt;br&gt;&lt;/p&gt;" style="text;html=1;align=center;verticalAlign=middle;resizable=0;points=[];autosize=1;strokeColor=none;fillColor=none;" parent="1" vertex="1">
          <mxGeometry x="1060" y="720" width="310" height="60" as="geometry" />
        </mxCell>
        <mxCell id="p-yxIIEr6ukb9wPfq_q1-80" value="" style="rounded=0;whiteSpace=wrap;html=1;align=left;" parent="1" vertex="1">
          <mxGeometry x="1070" y="775" width="150" height="125" as="geometry" />
        </mxCell>
        <mxCell id="p-yxIIEr6ukb9wPfq_q1-82" value="" style="rounded=0;whiteSpace=wrap;html=1;align=center;" parent="1" vertex="1">
          <mxGeometry x="1240" y="775" width="160" height="125" as="geometry" />
        </mxCell>
        <mxCell id="o-u-SamClbrPGcs2QP7--2" value="" style="rounded=0;whiteSpace=wrap;html=1;" parent="1" vertex="1">
          <mxGeometry x="212.5" y="610" width="617.5" height="590" as="geometry" />
        </mxCell>
        <mxCell id="o-u-SamClbrPGcs2QP7--4" value="&lt;b&gt;&lt;font style=&quot;font-size: 24px;&quot;&gt;About Me&lt;/font&gt;&lt;/b&gt;" style="text;html=1;align=center;verticalAlign=middle;resizable=0;points=[];autosize=1;strokeColor=none;fillColor=none;" parent="1" vertex="1">
          <mxGeometry x="252.5" y="670" width="130" height="40" as="geometry" />
        </mxCell>
        <mxCell id="o-u-SamClbrPGcs2QP7--5" value="" style="rounded=1;whiteSpace=wrap;html=1;" parent="1" vertex="1">
          <mxGeometry x="536.88" y="655" width="260" height="135" as="geometry" />
        </mxCell>
        <mxCell id="o-u-SamClbrPGcs2QP7--8" value="&lt;font style=&quot;font-size: 14px;&quot;&gt;I am a developer at GCU, mastering HTML, CSS, JavaScript, dedicated to creating innovative applications.&lt;/font&gt;" style="rounded=1;whiteSpace=wrap;html=1;fillColor=none;strokeColor=none;align=left;" parent="1" vertex="1">
          <mxGeometry x="260" y="685" width="260" height="115" as="geometry" />
        </mxCell>
        <mxCell id="o-u-SamClbrPGcs2QP7--9" value="&lt;span style=&quot;font-size: 24px;&quot;&gt;&lt;b&gt;Contact&amp;nbsp;&lt;/b&gt;&lt;/span&gt;" style="text;html=1;align=center;verticalAlign=middle;resizable=0;points=[];autosize=1;strokeColor=none;fillColor=none;" parent="1" vertex="1">
          <mxGeometry x="531.25" y="850" width="120" height="40" as="geometry" />
        </mxCell>
        <mxCell id="o-u-SamClbrPGcs2QP7--10" value="" style="rounded=1;whiteSpace=wrap;html=1;" parent="1" vertex="1">
          <mxGeometry x="260" y="830" width="260" height="135" as="geometry" />
        </mxCell>
        <mxCell id="o-u-SamClbrPGcs2QP7--11" value="&lt;font style=&quot;font-size: 14px;&quot;&gt;Contact me on a variety of platforms and sites.&amp;nbsp;&lt;/font&gt;" style="rounded=1;whiteSpace=wrap;html=1;fillColor=none;strokeColor=none;align=left;" parent="1" vertex="1">
          <mxGeometry x="544.38" y="860" width="260" height="115" as="geometry" />
        </mxCell>
        <mxCell id="o-u-SamClbrPGcs2QP7--15" value="&lt;b&gt;&lt;font style=&quot;font-size: 24px;&quot;&gt;Projects&lt;/font&gt;&lt;/b&gt;" style="text;html=1;align=center;verticalAlign=middle;resizable=0;points=[];autosize=1;strokeColor=none;fillColor=none;" parent="1" vertex="1">
          <mxGeometry x="257.5" y="1025" width="120" height="40" as="geometry" />
        </mxCell>
        <mxCell id="o-u-SamClbrPGcs2QP7--16" value="Carosel?" style="rounded=1;whiteSpace=wrap;html=1;" parent="1" vertex="1">
          <mxGeometry x="536.88" y="1010" width="260" height="135" as="geometry" />
        </mxCell>
        <mxCell id="o-u-SamClbrPGcs2QP7--17" value="&lt;span style=&quot;font-size: 14px;&quot;&gt;View current or past projects that I have made or contributed to.&amp;nbsp;&lt;/span&gt;" style="rounded=1;whiteSpace=wrap;html=1;fillColor=none;strokeColor=none;align=left;" parent="1" vertex="1">
          <mxGeometry x="260" y="1040" width="260" height="115" as="geometry" />
        </mxCell>
        <mxCell id="Yw1BWcSoq9_vGBbbzldf-1" value="" style="rounded=0;whiteSpace=wrap;html=1;" parent="1" vertex="1">
          <mxGeometry x="212.5" y="1200" width="617.5" height="180" as="geometry" />
        </mxCell>
        <mxCell id="Yw1BWcSoq9_vGBbbzldf-2" value="&lt;b&gt;&lt;font style=&quot;font-size: 24px;&quot;&gt;Resume&lt;/font&gt;&lt;/b&gt;" style="text;html=1;align=center;verticalAlign=middle;resizable=0;points=[];autosize=1;strokeColor=none;fillColor=none;" parent="1" vertex="1">
          <mxGeometry x="461.25" y="1250" width="120" height="40" as="geometry" />
        </mxCell>
        <mxCell id="Yw1BWcSoq9_vGBbbzldf-3" value="&lt;span style=&quot;font-size: 14px;&quot;&gt;Will be made available soon.&lt;/span&gt;" style="rounded=1;whiteSpace=wrap;html=1;fillColor=none;strokeColor=none;align=center;" parent="1" vertex="1">
          <mxGeometry x="391.26" y="1247.5" width="260" height="115" as="geometry" />
        </mxCell>
        <mxCell id="Yw1BWcSoq9_vGBbbzldf-4" value="© 2023 Andrew Forster" style="rounded=0;whiteSpace=wrap;html=1;" parent="1" vertex="1">
          <mxGeometry x="212.5" y="1380" width="617.5" height="50" as="geometry" />
        </mxCell>
        <mxCell id="leRGbz7izRYKqsYkH1Ri-5" value="HTML" style="text;html=1;align=center;verticalAlign=middle;resizable=0;points=[];autosize=1;strokeColor=none;fillColor=none;" parent="1" vertex="1">
          <mxGeometry x="3635" y="440" width="60" height="30" as="geometry" />
        </mxCell>
        <mxCell id="leRGbz7izRYKqsYkH1Ri-6" value="Code here" style="rounded=1;whiteSpace=wrap;html=1;fontFamily=Montserrat;fontSource=https%3A%2F%2Ffonts.googleapis.com%2Fcss%3Ffamily%3DMontserrat;" parent="1" vertex="1">
          <mxGeometry x="3580" y="712.5" width="190" height="187.5" as="geometry" />
        </mxCell>
        <mxCell id="leRGbz7izRYKqsYkH1Ri-7" value="CSS" style="text;html=1;align=center;verticalAlign=middle;resizable=0;points=[];autosize=1;strokeColor=none;fillColor=none;" parent="1" vertex="1">
          <mxGeometry x="3640" y="680" width="50" height="30" as="geometry" />
        </mxCell>
        <mxCell id="leRGbz7izRYKqsYkH1Ri-8" value="Code explanation" style="text;html=1;align=center;verticalAlign=middle;resizable=0;points=[];autosize=1;strokeColor=none;fillColor=none;" parent="1" vertex="1">
          <mxGeometry x="3850" y="660" width="120" height="30" as="geometry" />
        </mxCell>
        <mxCell id="leRGbz7izRYKqsYkH1Ri-9" value="" style="rounded=1;whiteSpace=wrap;html=1;fontFamily=Montserrat;fontSource=https%3A%2F%2Ffonts.googleapis.com%2Fcss%3Ffamily%3DMontserrat;" parent="1" vertex="1">
          <mxGeometry x="3580" y="997.5" width="490" height="515" as="geometry" />
        </mxCell>
        <mxCell id="leRGbz7izRYKqsYkH1Ri-10" value="Code here" style="rounded=1;whiteSpace=wrap;html=1;fontFamily=Montserrat;fontSource=https%3A%2F%2Ffonts.googleapis.com%2Fcss%3Ffamily%3DMontserrat;" parent="1" vertex="1">
          <mxGeometry x="3590" y="1045" width="190" height="187.5" as="geometry" />
        </mxCell>
        <mxCell id="leRGbz7izRYKqsYkH1Ri-11" value="HTML" style="text;html=1;align=center;verticalAlign=middle;resizable=0;points=[];autosize=1;strokeColor=none;fillColor=none;" parent="1" vertex="1">
          <mxGeometry x="3645" y="1012.5" width="60" height="30" as="geometry" />
        </mxCell>
        <mxCell id="leRGbz7izRYKqsYkH1Ri-12" value="Code here" style="rounded=1;whiteSpace=wrap;html=1;fontFamily=Montserrat;fontSource=https%3A%2F%2Ffonts.googleapis.com%2Fcss%3Ffamily%3DMontserrat;" parent="1" vertex="1">
          <mxGeometry x="3590" y="1285" width="190" height="187.5" as="geometry" />
        </mxCell>
        <mxCell id="leRGbz7izRYKqsYkH1Ri-13" value="CSS" style="text;html=1;align=center;verticalAlign=middle;resizable=0;points=[];autosize=1;strokeColor=none;fillColor=none;" parent="1" vertex="1">
          <mxGeometry x="3650" y="1252.5" width="50" height="30" as="geometry" />
        </mxCell>
        <mxCell id="leRGbz7izRYKqsYkH1Ri-14" value="Code explanation" style="text;html=1;align=center;verticalAlign=middle;resizable=0;points=[];autosize=1;strokeColor=none;fillColor=none;" parent="1" vertex="1">
          <mxGeometry x="3860" y="1232.5" width="120" height="30" as="geometry" />
        </mxCell>
        <mxCell id="leRGbz7izRYKqsYkH1Ri-15" value="" style="rounded=1;whiteSpace=wrap;html=1;fontFamily=Montserrat;fontSource=https%3A%2F%2Ffonts.googleapis.com%2Fcss%3Ffamily%3DMontserrat;" parent="1" vertex="1">
          <mxGeometry x="3580" y="1550" width="490" height="515" as="geometry" />
        </mxCell>
        <mxCell id="leRGbz7izRYKqsYkH1Ri-16" value="Code here" style="rounded=1;whiteSpace=wrap;html=1;fontFamily=Montserrat;fontSource=https%3A%2F%2Ffonts.googleapis.com%2Fcss%3Ffamily%3DMontserrat;" parent="1" vertex="1">
          <mxGeometry x="3590" y="1597.5" width="190" height="187.5" as="geometry" />
        </mxCell>
        <mxCell id="leRGbz7izRYKqsYkH1Ri-17" value="HTML" style="text;html=1;align=center;verticalAlign=middle;resizable=0;points=[];autosize=1;strokeColor=none;fillColor=none;" parent="1" vertex="1">
          <mxGeometry x="3645" y="1565" width="60" height="30" as="geometry" />
        </mxCell>
        <mxCell id="leRGbz7izRYKqsYkH1Ri-18" value="Code here" style="rounded=1;whiteSpace=wrap;html=1;fontFamily=Montserrat;fontSource=https%3A%2F%2Ffonts.googleapis.com%2Fcss%3Ffamily%3DMontserrat;" parent="1" vertex="1">
          <mxGeometry x="3590" y="1837.5" width="190" height="187.5" as="geometry" />
        </mxCell>
        <mxCell id="leRGbz7izRYKqsYkH1Ri-19" value="CSS" style="text;html=1;align=center;verticalAlign=middle;resizable=0;points=[];autosize=1;strokeColor=none;fillColor=none;" parent="1" vertex="1">
          <mxGeometry x="3650" y="1805" width="50" height="30" as="geometry" />
        </mxCell>
        <mxCell id="leRGbz7izRYKqsYkH1Ri-20" value="Code explanation" style="text;html=1;align=center;verticalAlign=middle;resizable=0;points=[];autosize=1;strokeColor=none;fillColor=none;" parent="1" vertex="1">
          <mxGeometry x="3860" y="1785" width="120" height="30" as="geometry" />
        </mxCell>
        <mxCell id="SHNhY76IRwwKaY4Nw8yv-1" value="Image" style="rounded=0;whiteSpace=wrap;html=1;fontFamily=Montserrat;fontSource=https%3A%2F%2Ffonts.googleapis.com%2Fcss%3Ffamily%3DMontserrat;" parent="1" vertex="1">
          <mxGeometry x="1560" y="468.75" width="250" height="210" as="geometry" />
        </mxCell>
        <mxCell id="TeKRUioQs0zJkxoyN_XY-1" value="Image" style="rounded=0;whiteSpace=wrap;html=1;fontFamily=Montserrat;fontSource=https%3A%2F%2Ffonts.googleapis.com%2Fcss%3Ffamily%3DMontserrat;" vertex="1" parent="1">
          <mxGeometry x="1830" y="730" width="250" height="210" as="geometry" />
        </mxCell>
        <mxCell id="TeKRUioQs0zJkxoyN_XY-2" value="Image" style="rounded=0;whiteSpace=wrap;html=1;fontFamily=Montserrat;fontSource=https%3A%2F%2Ffonts.googleapis.com%2Fcss%3Ffamily%3DMontserrat;" vertex="1" parent="1">
          <mxGeometry x="1560" y="990" width="250" height="210" as="geometry" />
        </mxCell>
        <mxCell id="TeKRUioQs0zJkxoyN_XY-3" value="&lt;font style=&quot;&quot;&gt;&lt;span style=&quot;font-size: 18px;&quot;&gt;&lt;b&gt;Currently attending GCU&lt;/b&gt;&lt;/span&gt;&lt;br&gt;&lt;font style=&quot;font-size: 14px;&quot;&gt;&lt;br&gt;I am a freshman student at Grand Canyon University. I am actively pursuing a degree in Software Development while staying close to God&#39;s word!&amp;nbsp;&amp;nbsp;&lt;/font&gt;&lt;br&gt;&lt;/font&gt;" style="rounded=0;whiteSpace=wrap;html=1;fontFamily=Montserrat;fontSource=https%3A%2F%2Ffonts.googleapis.com%2Fcss%3Ffamily%3DMontserrat;strokeColor=none;align=left;verticalAlign=top;" vertex="1" parent="1">
          <mxGeometry x="1560" y="729.37" width="250" height="211.25" as="geometry" />
        </mxCell>
        <mxCell id="TeKRUioQs0zJkxoyN_XY-4" value="&lt;font style=&quot;&quot;&gt;&lt;span style=&quot;font-size: 18px;&quot;&gt;&lt;b&gt;Home Church: Athey CCF&lt;br&gt;&lt;/b&gt;&lt;/span&gt;&lt;br&gt;&lt;span style=&quot;font-size: 14px;&quot;&gt;I initially began going to Athey Creek Christian Fellowship(ACCF) around 2019 after covid. I started by just going to the main services but then found a passion to go the to youth group which has been a major step in my life to bring me closer to the Lord.&lt;/span&gt;&lt;br&gt;&lt;/font&gt;" style="rounded=0;whiteSpace=wrap;html=1;fontFamily=Montserrat;fontSource=https%3A%2F%2Ffonts.googleapis.com%2Fcss%3Ffamily%3DMontserrat;strokeColor=none;align=left;verticalAlign=top;" vertex="1" parent="1">
          <mxGeometry x="1830" y="990" width="250" height="211.25" as="geometry" />
        </mxCell>
      </root>
    </mxGraphModel>
  </diagram>
</mxfile>
